<svg width="584" height="191" viewBox="0 0 584 191" fill="none" xmlns="http://www.w3.org/2000/svg">
<path d="M180.797 65.75H186.797L210.047 92.4688L233.203 65.75H239.203V131H229.828V81.3125L227.062 85.0625L210.047 104.891L193.031 85.1094L190.172 81.3594V131H180.797V65.75ZM275.859 131.75C258.172 131.75 249.328 123.109 249.328 105.828C249.328 98.3906 251.781 92.4375 256.688 87.9688C261.094 83.9062 266.125 81.875 271.781 81.875C277.938 81.875 282.75 83.9375 286.219 88.0625C289.438 91.9062 291.047 97.0469 291.047 103.484V107.141H259.078C259.078 115.984 262.688 121.391 269.906 123.359C271.625 123.828 274.266 124.062 277.828 124.062C281.422 124.062 284.938 123.578 288.375 122.609V130.531C284.938 131.344 280.766 131.75 275.859 131.75ZM281.672 100.25C281.672 97.25 280.844 94.7188 279.188 92.6562C277.25 90.2812 274.578 89.0938 271.172 89.0938C267.578 89.0938 264.656 90.2344 262.406 92.5156C260.344 94.6406 259.312 97.2188 259.312 100.25H281.672ZM323.156 89.9375C318.5 89.9375 314.359 91.5156 310.734 94.6719V131H301.359V82.625H310.031L310.688 87.875C315.781 83.875 321.047 81.875 326.484 81.875C332.234 81.875 336.453 83.5938 339.141 87.0312C341.953 90.6562 343.359 96.5 343.359 104.562V131H333.984V104.562C333.984 96.8125 331.891 92.1875 327.703 90.6875C326.359 90.1875 324.844 89.9375 323.156 89.9375ZM374.812 123.594C375.844 123.969 377.406 124.156 379.5 124.156C381.594 124.156 383.344 123.906 384.75 123.406V130.906C384.094 131.062 383.141 131.156 381.891 131.188L378.938 131.281C378.281 131.281 377.781 131.281 377.438 131.281C371.406 131.281 366.953 129.312 364.078 125.375C361.766 122.188 360.609 117.969 360.609 112.719V89.7969H353.672V85.3906L360.609 82.625L362.859 70.625H369.984V82.625H384.984V89.7969H369.984V112.672C369.984 118.797 371.594 122.438 374.812 123.594ZM394.312 106.719C394.312 99.125 396.734 92.9688 401.578 88.25C406.109 83.8438 411.719 81.6406 418.406 81.6406C424.969 81.6406 430.453 83.8438 434.859 88.25C439.547 92.9375 441.891 99.0938 441.891 106.719C441.891 114.312 439.531 120.438 434.812 125.094C430.344 129.531 424.859 131.75 418.359 131.75C411.766 131.75 406.172 129.531 401.578 125.094C396.734 120.438 394.312 114.312 394.312 106.719ZM404.062 106.719C404.062 114.719 406.625 120.156 411.75 123.031C413.562 124.031 415.734 124.531 418.266 124.531C420.797 124.531 422.938 124.031 424.688 123.031C426.438 122 427.875 120.656 429 119C431.094 115.812 432.141 111.719 432.141 106.719C432.141 98.7812 429.625 93.3438 424.594 90.4062C422.844 89.375 420.75 88.8594 418.312 88.8594C415.875 88.8594 413.75 89.375 411.938 90.4062C410.156 91.4062 408.688 92.7344 407.531 94.3906C405.219 97.6406 404.062 101.75 404.062 106.719ZM484.172 91.2031C482.453 90.7031 480.391 90.4531 477.984 90.4531C475.609 90.4531 473.656 90.7031 472.125 91.2031C470.594 91.6719 469.25 92.25 468.094 92.9375C465.969 94.1875 464.422 95.5938 463.453 97.1562V131H454.078V82.625H463.078L463.453 89.3281C465.797 86.3906 469.219 84.1875 473.719 82.7188C475.344 82.1562 477.203 81.875 479.297 81.875C481.391 81.875 483.016 82.0312 484.172 82.3438V91.2031ZM495.609 122.375C494.578 120.594 493.75 118.5 493.125 116.094C492.531 113.688 492.234 110.547 492.234 106.672C492.234 102.797 493.062 99.2344 494.719 95.9844C496.406 92.7031 498.594 90.0156 501.281 87.9219C506.5 83.8906 512.984 81.875 520.734 81.875C524.766 81.875 527.812 81.9688 529.875 82.1562C529.875 82.1562 531.391 82.3125 534.422 82.625V131H525.984L525.609 125.422C523.734 127.922 520.875 129.781 517.031 131C515.562 131.469 514.047 131.703 512.484 131.703C510.953 131.703 509.438 131.547 507.938 131.234C506.438 130.922 504.938 130.406 503.438 129.688C501.969 128.969 500.562 128.016 499.219 126.828C497.875 125.609 496.672 124.125 495.609 122.375ZM525.047 89.5156C523.047 89.2656 521.047 89.1406 519.047 89.1406C517.078 89.1406 514.969 89.5 512.719 90.2188C510.469 90.9062 508.547 92 506.953 93.5C503.641 96.625 501.984 101.391 501.984 107.797C501.984 113.859 503.406 118.344 506.25 121.25C508.406 123.406 511 124.484 514.031 124.484C517.938 124.484 521.156 123.062 523.688 120.219C524.312 119.5 524.766 118.859 525.047 118.297V89.5156Z" fill="black"/>
<path d="M81.5354 120.535L124.535 77.5354L117.464 70.4644L74.4644 113.464L81.5354 120.535Z" fill="#0053EA"/>
<path d="M98.5354 77.5354L81.5354 94.5354L74.4644 87.4644L91.4644 70.4644L98.5354 77.5354Z" fill="#0053EA"/>
<path d="M107.535 120.535L124.535 103.535L117.464 96.4644L100.464 113.464L107.535 120.535Z" fill="#0053EA"/>
<path fill-rule="evenodd" clip-rule="evenodd" d="M58 137V53H142V137H58ZM68 63H132V127H68V63Z" fill="#0053EA"/>
</svg>
